HIERARCHY
ROOT Hips
{
	OFFSET -0.001795 -0.223333 0.028219
	CHANNELS 6 Xposition Yposition Zposition Zrotation Yrotation Xrotation 
	JOINT LeftUpLeg
	{
		OFFSET 0.069520 -0.091406 -0.006815
		CHANNELS 3 Zrotation Yrotation Xrotation
		JOINT LeftLeg
		{
			OFFSET 0.034277 -0.375199 -0.004496
			CHANNELS 3 Zrotation Yrotation Xrotation
			JOINT LeftFoot
			{
				OFFSET -0.013596 -0.397961 -0.043693
				CHANNELS 3 Zrotation Yrotation Xrotation
				JOINT LeftToe
				{
					OFFSET 0.026358 -0.055791 0.119288
					CHANNELS 3 Zrotation Yrotation Xrotation
					End Site
					{
						OFFSET 0.000000 0.000000 0.000000
					}
				}
			}
		}
	}
	JOINT RightUpLeg
	{
		OFFSET -0.067670 -0.090522 -0.004320
		CHANNELS 3 Zrotation Yrotation Xrotation
		JOINT RightLeg
		{
			OFFSET -0.038290 -0.382569 -0.008850
			CHANNELS 3 Zrotation Yrotation Xrotation
			JOINT RightFoot
			{
				OFFSET 0.015774 -0.398415 -0.042312
				CHANNELS 3 Zrotation Yrotation Xrotation
				JOINT RightToe
				{
					OFFSET -0.025372 -0.048144 0.123348
					CHANNELS 3 Zrotation Yrotation Xrotation
					End Site
					{
						OFFSET 0.000000 0.000000 0.000000
					}
				}
			}
		}
	}
	JOINT Spine
	{
		OFFSET -0.002533 0.108963 -0.026696
		CHANNELS 3 Zrotation Yrotation Xrotation
		JOINT Spine1
		{
			OFFSET 0.005487 0.135180 0.001092
			CHANNELS 3 Zrotation Yrotation Xrotation
			JOINT Spine2
			{
				OFFSET 0.001457 0.052922 0.025425
				CHANNELS 3 Zrotation Yrotation Xrotation
				JOINT Neck
				{
					OFFSET -0.002778 0.213870 -0.042857
					CHANNELS 3 Zrotation Yrotation Xrotation
					JOINT Head
					{
						OFFSET 0.005152 0.064970 0.051349
						CHANNELS 3 Zrotation Yrotation Xrotation
						End Site
						{
							OFFSET 0.000000 0.000000 0.000000
						}
					}
				}
				JOINT LeftShoulder
				{
					OFFSET 0.078845 0.121749 -0.034090
					CHANNELS 3 Zrotation Yrotation Xrotation
					JOINT LeftArm
					{
						OFFSET 0.090977 0.030469 -0.008868
						CHANNELS 3 Zrotation Yrotation Xrotation
						JOINT LeftForeArm
						{
							OFFSET 0.259612 -0.012772 -0.027456
							CHANNELS 3 Zrotation Yrotation Xrotation
							JOINT LeftHand
							{
								OFFSET 0.249234 0.008986 -0.001171
								CHANNELS 3 Zrotation Yrotation Xrotation
								End Site
								{
									OFFSET 0.000000 0.000000 0.000000
								}
							}
						}
					}
				}
				JOINT RightShoulder
				{
					OFFSET -0.081759 0.118833 -0.038615
					CHANNELS 3 Zrotation Yrotation Xrotation
					JOINT RightArm
					{
						OFFSET -0.096012 0.032551 -0.009143
						CHANNELS 3 Zrotation Yrotation Xrotation
						JOINT RightForeArm
						{
							OFFSET -0.253742 -0.013329 -0.021401
							CHANNELS 3 Zrotation Yrotation Xrotation
							JOINT RightHand
							{
								OFFSET -0.255298 0.007772 -0.005559
								CHANNELS 3 Zrotation Yrotation Xrotation
								End Site
								{
									OFFSET 0.000000 0.000000 0.000000
								}
							}
						}
					}
				}
			}
		}
	}
}
MOTION
Frames: 13
Frame Time: 0.050000
0.028998 0.907239 -0.058222 1.940401 6.701265 -6.689233 7.195583 -0.345463 -9.198849 -5.195853 0.491485 14.111823 3.276033 8.232842 3.977517 0.000000 0.000000 0.000000 -13.629202 -0.431305 -9.278736 5.771049 -1.184880 19.064767 -5.461675 -14.190811 6.636747 0.000000 0.000000 0.000000 1.841171 -4.879180 53.556031 -2.570594 1.384996 -25.027438 -1.389829 9.632992 21.770003 19.000093 -6.825692 -30.387538 0.000000 0.000000 0.000000 -4.546642 -29.294276 9.481257 -27.214264 -21.380097 0.164679 -146.786551 -86.991599 144.431276 0.000000 0.000000 0.000000 22.448367 21.252408 14.027048 32.887969 46.428572 7.288687 -6.641887 45.769718 -0.458897 0.000000 0.000000 0.000000 
0.028790 0.907351 -0.058279 2.118237 7.041368 -6.797563 7.190842 -0.352154 -9.261429 -5.399567 0.524013 14.140352 3.136715 8.061064 4.198749 0.000000 0.000000 0.000000 -13.683010 -0.456704 -9.220155 5.526978 -1.157991 19.875868 -5.523364 -14.248096 5.886611 0.000000 0.000000 0.000000 2.428159 -5.244873 53.540816 -2.518687 1.382905 -25.123251 -1.225998 9.646713 21.784720 19.285693 -6.885810 -30.745322 0.000000 0.000000 0.000000 -5.492682 -29.679399 9.705886 -29.071718 -21.815790 0.360509 -140.221875 -87.542050 138.092654 0.000000 0.000000 0.000000 22.517582 20.815598 13.833669 32.119638 45.994627 6.869747 -7.016716 46.174581 -0.606255 0.000000 0.000000 0.000000 
0.028527 0.907676 -0.058129 2.510624 7.323769 -6.805478 6.714761 -0.385064 -9.190685 -5.544582 0.548814 13.967957 3.134810 8.104627 4.314951 0.000000 0.000000 0.000000 -13.978262 -0.499390 -9.093110 5.246397 -1.096493 20.243597 -5.620003 -14.406752 5.350758 0.000000 0.000000 0.000000 3.223175 -5.681460 53.469046 -2.628634 1.417345 -25.286383 -1.452060 9.310119 21.671230 19.513548 -7.077006 -30.691632 0.000000 0.000000 0.000000 -7.135406 -30.033696 10.054749 -30.251240 -21.572433 0.421352 -134.662096 -87.852553 132.889333 0.000000 0.000000 0.000000 23.147086 20.485957 13.773550 31.252288 45.150007 6.272311 -7.093316 46.712301 -0.665463 0.000000 0.000000 0.000000 
0.028144 0.908101 -0.057815 2.769697 7.955143 -6.926081 6.339402 -0.409985 -9.032335 -5.589955 0.537053 13.948969 2.976514 7.789440 4.194495 0.000000 0.000000 0.000000 -14.189018 -0.548824 -8.722192 5.248787 -1.140083 20.423110 -5.852835 -14.860069 4.859637 0.000000 0.000000 0.000000 3.916713 -6.159024 53.368496 -2.703160 1.449181 -25.209612 -1.335264 9.075222 21.628964 19.551293 -6.903783 -31.414632 0.000000 0.000000 0.000000 -8.540622 -30.391426 10.355116 -31.784509 -21.606473 0.561752 -126.618311 -88.031752 124.984086 0.000000 0.000000 0.000000 23.221594 20.285704 13.672733 30.426361 44.346923 5.773024 -7.370041 46.422485 -0.807704 0.000000 0.000000 0.000000 
0.027424 0.908224 -0.057418 3.082254 8.428516 -6.773490 5.986449 -0.443603 -9.078485 -5.766519 0.560941 13.739818 2.947768 7.812512 4.364190 0.000000 0.000000 0.000000 -14.568535 -0.598599 -8.401746 5.368353 -1.196473 20.218635 -6.028789 -15.214045 4.432577 0.000000 0.000000 0.000000 4.565700 -6.538841 53.049805 -2.654611 1.445179 -25.275655 -1.506243 8.833402 21.458488 19.654427 -6.898522 -31.638749 0.000000 0.000000 0.000000 -9.879836 -30.385501 10.525840 -32.806317 -21.132425 0.555383 -116.812234 -87.840028 114.993913 0.000000 0.000000 0.000000 23.944036 20.180675 13.819067 29.643794 43.492473 5.250111 -7.415040 46.154182 -0.861250 0.000000 0.000000 0.000000 
0.026433 0.907667 -0.056963 3.392721 8.717929 -6.627736 5.834387 -0.461173 -9.124257 -5.837184 0.569139 13.470158 2.848470 7.719002 4.578635 0.000000 0.000000 0.000000 -14.933249 -0.643497 -8.258086 5.715954 -1.323450 20.260864 -6.275911 -15.734154 3.908757 0.000000 0.000000 0.000000 4.930756 -6.756203 52.888497 -2.768845 1.475225 -25.492790 -1.382364 8.819381 21.471026 19.737373 -6.871892 -31.882868 0.000000 0.000000 0.000000 -10.834826 -30.371047 10.625428 -33.690470 -20.646382 0.508355 -112.414700 -87.860509 110.632431 0.000000 0.000000 0.000000 24.541399 19.899985 13.863194 28.923169 42.825110 4.802708 -7.227256 45.635955 -0.809145 0.000000 0.000000 0.000000 
0.025426 0.907193 -0.056687 3.657283 8.969095 -6.547502 5.636580 -0.480542 -9.178155 -5.858845 0.566732 13.392039 2.772809 7.599493 4.606285 0.000000 0.000000 0.000000 -15.257221 -0.680958 -8.045197 5.972756 -1.409737 20.094890 -6.498435 -16.221225 3.766004 0.000000 0.000000 0.000000 5.304987 -6.975788 52.789140 -2.942392 1.520598 -25.638477 -1.219854 8.693410 21.393998 19.536308 -6.815471 -31.671428 0.000000 0.000000 0.000000 -12.155782 -30.331060 10.776380 -34.168166 -20.204914 0.472294 -105.884003 -87.636825 103.940672 0.000000 0.000000 0.000000 25.015828 19.925869 14.000262 28.506127 42.239754 4.508020 -7.623646 44.404021 -0.992228 0.000000 0.000000 0.000000 
0.024654 0.906628 -0.056667 3.945478 8.908410 -6.401059 5.394460 -0.494379 -9.123370 -5.927244 0.587670 12.948528 2.683417 7.472651 4.709369 0.000000 0.000000 0.000000 -15.412852 -0.691341 -8.122004 6.131815 -1.461491 20.236450 -6.553039 -16.337118 3.290420 0.000000 0.000000 0.000000 5.281204 -6.915441 52.653155 -2.696808 1.458673 -25.748451 -1.143180 8.928100 21.301427 19.815786 -6.737492 -32.386667 0.000000 0.000000 0.000000 -12.948277 -30.380234 10.851823 -35.003507 -19.873234 0.467045 -94.335029 -87.848676 92.529327 0.000000 0.000000 0.000000 25.479089 19.829908 14.158479 28.040768 42.076384 4.295784 -8.233081 42.779117 -1.211231 0.000000 0.000000 0.000000 
0.024129 0.906670 -0.056801 4.054339 8.756119 -6.245766 5.315341 -0.506260 -9.239717 -5.820814 0.572466 12.851551 2.613017 7.341675 4.715282 0.000000 0.000000 0.000000 -15.497274 -0.689364 -8.229105 6.144910 -1.452848 20.181850 -6.524119 -16.275360 3.367439 0.000000 0.000000 0.000000 5.431024 -6.901433 52.376544 -2.883137 1.498177 -25.817765 -0.983512 8.775060 21.412832 19.898395 -6.781715 -32.493486 0.000000 0.000000 0.000000 -13.522623 -30.257932 10.909915 -35.479114 -19.899750 0.499266 -71.337751 -87.979385 69.921078 0.000000 0.000000 0.000000 25.649344 19.980954 14.248506 28.236500 42.121033 4.356159 -8.866101 41.057673 -1.413149 0.000000 0.000000 0.000000 
0.023684 0.907195 -0.056910 4.217052 8.365221 -6.003448 5.223394 -0.505081 -9.138188 -5.713784 0.569682 12.144955 2.471118 7.247385 5.195193 0.000000 0.000000 0.000000 -15.693747 -0.689797 -8.523914 6.307146 -1.469290 19.997360 -6.493903 -16.217257 3.710953 0.000000 0.000000 0.000000 5.485096 -6.745204 51.903114 -2.904887 1.496506 -25.724798 -1.037281 8.873332 21.370061 19.756653 -6.737944 -32.293335 0.000000 0.000000 0.000000 -13.859449 -30.082346 10.879747 -35.972073 -20.230121 0.617991 -54.871478 -87.634808 53.493270 0.000000 0.000000 0.000000 25.752922 19.915388 14.255034 28.356907 42.558554 4.488577 -9.448803 39.481915 -1.558117 0.000000 0.000000 0.000000 
0.023114 0.908049 -0.056779 4.308683 7.928874 -5.789548 5.184003 -0.493522 -8.926706 -5.575853 0.560405 11.494303 2.358921 7.094369 5.380930 0.000000 0.000000 0.000000 -15.765858 -0.665779 -8.615454 6.301090 -1.422867 19.618738 -6.393470 -16.011628 3.962037 0.000000 0.000000 0.000000 5.525839 -6.578181 51.421528 -2.798836 1.460410 -25.821445 -1.236867 8.848039 21.513149 19.677435 -6.791628 -31.976251 0.000000 0.000000 0.000000 -13.879962 -29.850856 10.814353 -36.434489 -20.538940 0.696413 -44.967280 -87.580452 43.903636 0.000000 0.000000 0.000000 26.117093 19.872679 14.318188 28.531627 43.054868 4.626077 -10.255380 38.386612 -1.774193 0.000000 0.000000 0.000000 
0.022423 0.908825 -0.056386 4.444872 7.314193 -5.772225 5.343704 -0.448788 -8.416423 -5.544371 0.576384 10.695932 2.298705 7.211826 6.092244 0.000000 0.000000 0.000000 -15.891980 -0.637394 -8.582067 6.418979 -1.400621 19.212169 -6.284166 -15.810661 4.573208 0.000000 0.000000 0.000000 5.566735 -6.426657 51.331055 -3.005562 1.494357 -26.008556 -1.416924 8.726097 21.484918 19.382915 -6.636055 -32.083679 0.000000 0.000000 0.000000 -13.846669 -29.563299 10.747233 -36.746470 -21.173778 0.863810 -33.891132 -87.318763 33.171596 0.000000 0.000000 0.000000 26.377166 19.713551 14.195141 28.687205 43.620905 4.805335 -10.581379 37.326506 -1.829237 0.000000 0.000000 0.000000 
0.021597 0.909480 -0.055943 4.493551 6.853004 -5.734706 5.412127 -0.412085 -7.885358 -5.626834 0.605839 9.911679 2.418828 7.517081 6.429243 0.000000 0.000000 0.000000 -15.920416 -0.603947 -8.456746 6.517136 -1.379048 18.662270 -6.211475 -15.683053 4.855891 0.000000 0.000000 0.000000 5.494122 -6.236391 51.071870 -2.922392 1.465240 -26.080015 -1.542352 8.772205 21.529850 19.230075 -6.636265 -31.818619 0.000000 0.000000 0.000000 -13.896339 -29.525099 10.760291 -36.865750 -21.709229 1.008528 -30.818390 -87.341139 30.283871 0.000000 0.000000 0.000000 26.428107 19.629536 14.135329 28.649443 44.037943 4.889216 -10.920843 36.618606 -1.897446 0.000000 0.000000 0.000000 
